<mxfile host="app.diagrams.net" modified="2022-07-08T16:20:06.663Z" agent="5.0 (Macintosh; Intel Mac OS X 10_15_7) AppleWebKit/537.36 (KHTML, like Gecko) Chrome/102.0.0.0 Safari/537.36" etag="F-IBkoaBHZAvjtY6e5Qz" version="20.0.4" type="github">
  <diagram id="UhrysTIyHV2Ppr70SBe4" name="Page-1">
    <mxGraphModel dx="1123" dy="653" grid="1" gridSize="10" guides="1" tooltips="1" connect="1" arrows="1" fold="1" page="1" pageScale="1" pageWidth="850" pageHeight="1100" math="0" shadow="0">
      <root>
        <mxCell id="0" />
        <mxCell id="1" parent="0" />
        <mxCell id="BNM1V4DyFCgC59yu3b7V-8" style="edgeStyle=orthogonalEdgeStyle;rounded=0;orthogonalLoop=1;jettySize=auto;html=1;exitX=0.5;exitY=1;exitDx=0;exitDy=0;entryX=0.5;entryY=0;entryDx=0;entryDy=0;" edge="1" parent="1" source="BNM1V4DyFCgC59yu3b7V-1" target="BNM1V4DyFCgC59yu3b7V-2">
          <mxGeometry relative="1" as="geometry" />
        </mxCell>
        <mxCell id="BNM1V4DyFCgC59yu3b7V-1" value="ODAPES" style="rounded=1;whiteSpace=wrap;html=1;" vertex="1" parent="1">
          <mxGeometry x="390" y="90" width="120" height="60" as="geometry" />
        </mxCell>
        <mxCell id="BNM1V4DyFCgC59yu3b7V-9" style="edgeStyle=orthogonalEdgeStyle;rounded=0;orthogonalLoop=1;jettySize=auto;html=1;exitX=0.5;exitY=1;exitDx=0;exitDy=0;entryX=0.5;entryY=0;entryDx=0;entryDy=0;fontColor=#3399FF;fillColor=#dae8fc;strokeColor=#6c8ebf;strokeWidth=6;startSize=0;endSize=0;" edge="1" parent="1" source="BNM1V4DyFCgC59yu3b7V-2" target="BNM1V4DyFCgC59yu3b7V-3">
          <mxGeometry relative="1" as="geometry" />
        </mxCell>
        <mxCell id="BNM1V4DyFCgC59yu3b7V-14" style="edgeStyle=orthogonalEdgeStyle;rounded=0;orthogonalLoop=1;jettySize=auto;html=1;exitX=0;exitY=0.5;exitDx=0;exitDy=0;entryX=0;entryY=0.5;entryDx=0;entryDy=0;fillColor=#fff2cc;strokeColor=#d6b656;strokeWidth=6;endSize=2;" edge="1" parent="1" source="BNM1V4DyFCgC59yu3b7V-2" target="BNM1V4DyFCgC59yu3b7V-4">
          <mxGeometry relative="1" as="geometry">
            <Array as="points">
              <mxPoint x="300" y="270" />
              <mxPoint x="300" y="580" />
            </Array>
          </mxGeometry>
        </mxCell>
        <mxCell id="BNM1V4DyFCgC59yu3b7V-2" value="APPS" style="rounded=1;whiteSpace=wrap;html=1;" vertex="1" parent="1">
          <mxGeometry x="390" y="240" width="120" height="60" as="geometry" />
        </mxCell>
        <mxCell id="BNM1V4DyFCgC59yu3b7V-10" style="edgeStyle=orthogonalEdgeStyle;rounded=0;orthogonalLoop=1;jettySize=auto;html=1;exitX=0.5;exitY=1;exitDx=0;exitDy=0;entryX=0.5;entryY=0;entryDx=0;entryDy=0;" edge="1" parent="1" source="BNM1V4DyFCgC59yu3b7V-3" target="BNM1V4DyFCgC59yu3b7V-4">
          <mxGeometry relative="1" as="geometry" />
        </mxCell>
        <mxCell id="BNM1V4DyFCgC59yu3b7V-3" value="USERS" style="rounded=1;whiteSpace=wrap;html=1;" vertex="1" parent="1">
          <mxGeometry x="390" y="390" width="120" height="60" as="geometry" />
        </mxCell>
        <mxCell id="BNM1V4DyFCgC59yu3b7V-4" value="MICROSERVICES" style="rounded=1;whiteSpace=wrap;html=1;" vertex="1" parent="1">
          <mxGeometry x="390" y="550" width="120" height="60" as="geometry" />
        </mxCell>
        <mxCell id="BNM1V4DyFCgC59yu3b7V-5" value="Develops" style="ellipse;whiteSpace=wrap;html=1;" vertex="1" parent="1">
          <mxGeometry x="395" y="180" width="110" height="30" as="geometry" />
        </mxCell>
        <mxCell id="BNM1V4DyFCgC59yu3b7V-6" value="Aquire" style="ellipse;whiteSpace=wrap;html=1;fillColor=#dae8fc;strokeColor=#6c8ebf;" vertex="1" parent="1">
          <mxGeometry x="395" y="330" width="110" height="30" as="geometry" />
        </mxCell>
        <mxCell id="BNM1V4DyFCgC59yu3b7V-7" value="Consume" style="ellipse;whiteSpace=wrap;html=1;" vertex="1" parent="1">
          <mxGeometry x="395" y="480" width="110" height="30" as="geometry" />
        </mxCell>
        <mxCell id="BNM1V4DyFCgC59yu3b7V-12" value="Increases Value" style="ellipse;whiteSpace=wrap;html=1;fillColor=#fff2cc;strokeColor=#d6b656;" vertex="1" parent="1">
          <mxGeometry x="250" y="405" width="110" height="30" as="geometry" />
        </mxCell>
        <mxCell id="BNM1V4DyFCgC59yu3b7V-15" value="&lt;b&gt;Multiplier 1&lt;/b&gt;&lt;br&gt;Each (APP) Client acquires &lt;br&gt;new users every month." style="whiteSpace=wrap;html=1;rounded=1;arcSize=50;align=center;verticalAlign=middle;strokeWidth=1;autosize=1;spacing=4;treeFolding=1;treeMoving=1;newEdgeStyle={&quot;edgeStyle&quot;:&quot;entityRelationEdgeStyle&quot;,&quot;startArrow&quot;:&quot;none&quot;,&quot;endArrow&quot;:&quot;none&quot;,&quot;segment&quot;:10,&quot;curved&quot;:1};fillColor=#dae8fc;strokeColor=#6c8ebf;" vertex="1" parent="1">
          <mxGeometry x="573" y="295" width="190" height="60" as="geometry" />
        </mxCell>
        <mxCell id="BNM1V4DyFCgC59yu3b7V-16" value="" style="edgeStyle=entityRelationEdgeStyle;startArrow=none;endArrow=none;segment=10;curved=1;rounded=0;exitX=1;exitY=0.5;exitDx=0;exitDy=0;" edge="1" target="BNM1V4DyFCgC59yu3b7V-15" parent="1" source="BNM1V4DyFCgC59yu3b7V-6">
          <mxGeometry relative="1" as="geometry">
            <mxPoint x="500" y="345" as="sourcePoint" />
          </mxGeometry>
        </mxCell>
        <mxCell id="BNM1V4DyFCgC59yu3b7V-24" value="&lt;b style=&quot;color: rgb(0, 0, 0);&quot;&gt;Multiplier 2&lt;/b&gt;&lt;br style=&quot;color: rgb(0, 0, 0);&quot;&gt;&lt;font color=&quot;#000000&quot;&gt;Each New App Improves Microservices / price&lt;/font&gt;" style="whiteSpace=wrap;html=1;rounded=1;arcSize=50;align=center;verticalAlign=middle;strokeWidth=1;autosize=1;spacing=4;treeFolding=1;treeMoving=1;newEdgeStyle={&quot;edgeStyle&quot;:&quot;entityRelationEdgeStyle&quot;,&quot;startArrow&quot;:&quot;none&quot;,&quot;endArrow&quot;:&quot;none&quot;,&quot;segment&quot;:10,&quot;curved&quot;:1};fillColor=#fff2cc;strokeColor=#d6b656;" vertex="1" parent="1">
          <mxGeometry x="40" y="380" width="180" height="50" as="geometry" />
        </mxCell>
        <mxCell id="BNM1V4DyFCgC59yu3b7V-25" value="" style="edgeStyle=entityRelationEdgeStyle;startArrow=none;endArrow=none;segment=10;curved=1;rounded=0;fontColor=#3399FF;startSize=0;endSize=0;strokeWidth=1;exitX=0;exitY=0.5;exitDx=0;exitDy=0;" edge="1" target="BNM1V4DyFCgC59yu3b7V-24" parent="1" source="BNM1V4DyFCgC59yu3b7V-12">
          <mxGeometry relative="1" as="geometry">
            <mxPoint x="90" y="390" as="sourcePoint" />
          </mxGeometry>
        </mxCell>
      </root>
    </mxGraphModel>
  </diagram>
</mxfile>
